<?xml version="1.0" encoding="UTF-8"?>
<svg id="Layer_1" xmlns="http://www.w3.org/2000/svg" version="1.1" viewBox="0 0 32 32">
  <!-- Generator: Adobe Illustrator 29.0.1, SVG Export Plug-In . SVG Version: 2.1.0 Build 192)  -->
  <defs>
    <style>
      .st0 {
        fill: #cfd7d5;
      }

      .st1 {
        fill: #d8cfc7;
      }
    </style>
  </defs>
  <g id="Layer_11" data-name="Layer_1">
    <g id="Layer_1-2">
      <g>
        <path class="st1" d="M17.9,28.3c-.2.6-.7,1.1-1,1.7-.1.2-.3.5-.4.7-.2.3-.2.4-.6.2-.4-.3-.5-.6-.7-1-.3-.5-.6-1-.9-1.5-.2-.5,0-1.2,0-1.8,0-.7,0-1.4,0-2.1v-4.2c0-2.9,0-5.7,0-8.6,0-.2-.1-.6,0-.8.1-.2.4-.1.7-.2.2,0,.6-.1.7,0,.1.1,0,.8,0,1,0,1.4,0,2.8,0,4.2,0,2.8,0,5.5,0,8.3,0,.6,0,1.3,0,1.9,0,.6-.1,1.2,0,1.8,0,.3.4.9.7.7,0,0,.4-.5.5-.6,0-.2,0-.5,0-.8-.1-1.5,0-3,0-4.5s0-3.2,0-4.8c0-1.6,0-3.2,0-4.8,0-.7,0-1.4,0-2.1,0-.4.2-.3.6-.3s.6-.1.6.2v1c0,2.8,0,5.6,0,8.4v6c0,.6.2,1.4,0,1.9h0Z"/>
        <path class="st1" d="M29.6,10.5c-.2.1-.8,0-1,0h-2.6c-1.4,0-2.8,0-4.2,0-.2,0-.4,0-.5-.1,0-.1.4-.6.4-.7.2-.5,0-1-.4-1.4-.4-.3-.9-.6-1.4-.7-.3,0-1.4.2-1.6,0-.1-.1,0-1.3,0-1.4.2-.3,1.4-.1,1.8-.1h1c.3,0,.8,0,1,0,.4.2.2,1.1.2,1.5.1,1,1.1,1.8,2.2,1.3.5-.2.8-.6.9-1.1,0-.2,0-.5,0-.8,0-.2,0-.8,0-.9.2-.2.9,0,1.2.1.5.2,1,.4,1.4.7.9.7,1.5,1.8,1.6,2.9,0,.3.1.5-.1.6Z"/>
        <path class="st1" d="M13.8,7.6c-.1.2-.8,0-1,0-.3,0-.7,0-1,0-.6.1-.9.5-1.2,1-.3.6-.1.9,0,1.5,0,.2.2.2,0,.3-.2.1-.8,0-1,0h0c-1.4,0-2.9.1-4.3,0-.7,0-1.3,0-2,0-.2,0-.7,0-.8,0-.1-.1,0-.6,0-.8.2-1,.7-2,1.5-2.7.4-.3,2.3-1.4,2.6-.8.1.2,0,.6,0,.9s0,.6,0,.8c.2.5.6.9,1.2,1.1,1.1.3,1.8-.6,1.9-1.5,0-.3-.1-1.2,0-1.4.2-.2,1.4,0,1.7,0h1c.3,0,.8,0,1,0,.3.1.2.2.2.6s.1.8,0,.9h0Z"/>
        <path class="st1" d="M29.8,17.2h0v5.4c0,1-.4,1.9-1.2,2.6-.5.5-1.2.8-2,.8-.4,0-.7,0-1.1,0-2,0-4.1,0-6.1,0,0,0-.2,0-.2,0,0,0,0-.2,0-.3,0-.2,0-.5,0-.7s0-.2.2-.2c1.3,0,2.6,0,4,0,.8,0,1.7,0,2.5,0,1.2,0,2.1-.6,2.5-1.6.1-.2.2-.5.2-.8,0-1.6,0-3.2,0-4.8v-5.8q0-.5.5-.5c.1,0,.3,0,.4,0,.2,0,.2,0,.2.2v5.6h0Z"/>
        <path class="st1" d="M12.7,26.1h-.2c-2.1,0-4.2,0-6.3,0-.8,0-1.6-.2-2.2-.6-1.1-.7-1.6-1.7-1.6-2.9,0-2.3,0-4.6,0-6.9,0-1.3,0-2.5,0-3.8,0-.6,0-.5.5-.5.2,0,.5,0,.6,0s0,.4,0,.5v5.2h0c0,1.8,0,3.6,0,5.4,0,1,.9,2,1.9,2.2,0,0,.2,0,.2,0h4.2c.9,0,1.8,0,2.7,0,.2,0,.2,0,.2.2,0,.3,0,.6,0,.9,0,.1,0,.2-.2.2h0Z"/>
        <path class="st1" d="M8.1,22.1c0,.4.1,1-.1,1.3-.3.3-.9.2-1.3.2s-1.3.1-1.7-.1c-.4-.3-.3-1-.3-1.4h0c0-.4-.2-1.2.2-1.5.4-.3,1.2-.1,1.7-.1s1.1-.1,1.4.3c.2.4,0,1,0,1.4h0Z"/>
        <path class="st1" d="M27.4,22c0,.4.2,1.1-.2,1.5-.4.3-1.1.2-1.5.2s-1,.2-1.4-.1c-.4-.4-.2-1.1-.2-1.5,0-.4-.1-.9.1-1.3.3-.4.8-.3,1.2-.3s1.2-.1,1.6,0c.5.3.4,1,.4,1.5h0,0Z"/>
        <path class="st1" d="M22.7,22c0,.4.2,1.1-.1,1.5-.3.3-.8.2-1.1.2s-1.3.1-1.7,0c-.5-.2-.4-1-.4-1.4,0-.4-.1-1.1,0-1.5.3-.5,1.1-.3,1.6-.3h0c.5,0,1.2-.2,1.5.2.3.3.1,1,.1,1.3h0Z"/>
        <path class="st1" d="M8.1,13.3c0,.4.2,1.1-.2,1.4-.4.3-1.2.1-1.6.1-.4,0-1,.1-1.3-.2-.4-.3-.2-1-.2-1.4s-.2-1.1.2-1.4c.3-.3.9-.2,1.3-.2s1.3-.2,1.7.1c.4.3.2,1,.2,1.4h0Z"/>
        <path class="st1" d="M27.4,13.2c0,.4.2,1.1-.2,1.4-.4.3-1,.2-1.5.2s-1.1,0-1.4-.2c-.4-.4-.2-1.1-.2-1.5s-.1-1,.3-1.3c.4-.3,1-.1,1.5-.1.4,0,1.1-.1,1.4.2s.2.9.2,1.4h0Z"/>
        <path class="st0" d="M27.2,19c-.3.3-1,.2-1.4.2-.5,0-1.1.2-1.5-.1-.4-.3-.3-1.1-.3-1.6h0c0-.5-.2-1.2.4-1.4.4-.2,1.2,0,1.6,0s1-.1,1.3.2c.3.3.1,1,.1,1.4,0,.4.1,1-.2,1.3h0Z"/>
        <path class="st0" d="M12.8,22c0,.4.2,1.1-.2,1.4s-1.1.2-1.6.2c-.4,0-1,.1-1.4-.1-.4-.3-.2-.9-.2-1.2,0-.4-.1-1.2.2-1.6.3-.4.9-.2,1.3-.2s1.2-.2,1.6.1c.4.3.2,1.1.2,1.5h0Z"/>
        <path class="st0" d="M22.5,19c-.3.4-1,.2-1.4.2s-1.2.2-1.5-.1c-.4-.3-.2-1.1-.3-1.5h0c0-.4-.1-1,.2-1.3.3-.3.8-.2,1.2-.2.5,0,1.3-.2,1.8.1.4.3.3.9.3,1.3,0,.4.1,1.2-.2,1.5h0Z"/>
        <path class="st0" d="M22.7,13.3c0,.4.1,1-.3,1.4-.4.3-1,.1-1.5.1s-1,.1-1.4-.1c-.4-.3-.2-.9-.2-1.2s-.2-1.2.1-1.6c.3-.4,1.1-.2,1.5-.2h0c.5,0,1.1-.1,1.5.2.4.3.2,1,.2,1.4h0Z"/>
        <path class="st0" d="M8.1,17.6c0,.4.1,1.1-.2,1.4-.3.3-1,.2-1.5.2s-1.1.1-1.4-.2c-.3-.3-.2-.9-.2-1.3s-.2-1.1.1-1.4c.3-.4,1-.2,1.4-.2s1.2-.1,1.5.1c.4.3.3,1,.3,1.4h0Z"/>
        <path class="st0" d="M12.8,17.8c0,.4.1,1-.2,1.2-.3.2-1.1.1-1.4.1-.4,0-1.1.1-1.4-.1-.4-.3-.2-1-.2-1.5h0c0-.4-.2-1.1.2-1.4.4-.3,1.2-.1,1.7-.1s1-.1,1.3.3c.2.4.1,1.1.1,1.5h0Z"/>
        <path class="st0" d="M12.6,14.6c-.3.3-.9.2-1.3.2-.4,0-1.1.1-1.5,0-.5-.2-.3-.7-.3-1.1,0-.4-.1-1.2,0-1.6.2-.5.9-.4,1.3-.4s1.2-.1,1.6.1c.4.3.3,1,.3,1.4h0c0,.4.2,1-.1,1.4h0Z"/>
        <path class="st1" d="M19.3,10.4c-.3,0-.6,0-.8,0-.1,0-.3,0-.4,0-.9,0-1.7,0-2.6,0h-1.1c-.7,0-1.2,0-1.8,0h-.1c-.6,0-1.2-.4-1.3-.8-.1-.4,0-.8.4-1.1.3-.2.7-.3,1.3-.3s.6,0,.9,0c.2,0,.4,0,.5,0,.9,0,2.8,0,2.8,0,.4,0,.7,0,1.1,0,.4,0,.7,0,1,0h.4c.5,0,1.1.3,1.4.8.1.4,0,.8-.3,1.1-.4.4-.9.4-1.3.4h0Z"/>
        <path class="st1" d="M16,1c-.6,0-1,.3-1.5.6-.3.2-.2.1-.3.4,0,.2-.2.5-.2.7,0,1,.9,1.8,2,1.8,2.5,0,2.4-3.5,0-3.5h0ZM16,3.5c-.9,0-.9-1.3-.1-1.4,1.2-.2,1.2,1.4.1,1.4Z"/>
        <path class="st1" d="M8.8,7.6c-.3.6-1,.4-1.1-.2,0-.4,0-.8,0-1.2,0-.4-.1-.9,0-1.3.2-.6,1.2-.4,1.2.2,0,.4,0,.9,0,1.4,0,.3.1.7,0,1h0Z"/>
        <path class="st1" d="M24.5,6.6c0,.3,0,.6,0,.8,0,0,0,0,0,0,0,0,0,0,0,0h0s0,0,0,0c0,.2-.2.3-.5.3-.8,0-.5-1.3-.6-1.8,0-.4-.2-1.4.5-1.6.3,0,.5,0,.6.3,0,0,0,0,0,0,.1.3,0,.8,0,1.1h0c0,.1,0,.2,0,.3s0,.2,0,.3h0Z"/>
        <path class="st1" d="M17.2,6.1c-.1.3-.8.2-1.1.2h0c-.2,0-.8,0-.9,0s-.1-.3-.1-.5c0-.4,0-.3.4-.3h1.2c.2,0,.4,0,.5,0,0,0,0,.6,0,.6Z"/>
        <path class="st1" d="M17.1,7.6c0,.2,0,.2-.1.3,0,0-.4,0-.5,0-.3,0-.9,0-1.2,0-.2,0-.4-.4-.2-.7.2-.2.8-.1,1-.1h0c.6,0,1.2-.2,1.1.5h0Z"/>
      </g>
    </g>
  </g>
</svg>