<?xml version="1.0" encoding="UTF-8"?>
<svg xmlns="http://www.w3.org/2000/svg" version="1.1" viewBox="0 0 32 32">
  <defs>
    <style>
      .cls-1 {
        fill: #fff;
      }

      .cls-2 {
        fill: #f5faef;
      }

      .cls-3 {
        fill: #348971;
      }

      .cls-4 {
        fill: #0e1416;
      }
    </style>
  </defs>
  <!-- Generator: Adobe Illustrator 28.7.1, SVG Export Plug-In . SVG Version: 1.2.0 Build 142)  -->
  <g>
    <g id="Layer_1">
      <g>
        <rect class="cls-4" x=".05" y="-.03" width="31.83" height="32" rx="2.21" ry="2.21"/>
        <g id="Layer_1-2" data-name="Layer_1">
          <g>
            <path class="cls-1" d="M17.87,28.28c-.18.56-.72,1.15-1.04,1.66-.15.24-.28.48-.43.71-.21.33-.22.42-.55.22-.42-.26-.49-.65-.73-1.02-.3-.46-.65-.96-.88-1.46-.24-.54-.05-1.25-.04-1.82.02-.71,0-1.43,0-2.14,0-1.39,0-2.78,0-4.17,0-2.86.03-5.73,0-8.59,0-.17-.11-.62-.02-.77.12-.21.38-.15.66-.16.18,0,.57-.12.7.02.12.13.01.8.01.97,0,1.4,0,2.81-.01,4.21,0,2.77,0,5.54-.01,8.31,0,.64,0,1.27-.01,1.91,0,.56-.13,1.24,0,1.78.06.27.37.87.65.74.09-.04.42-.53.45-.63.08-.24-.05-.5-.06-.75-.1-1.48,0-2.99,0-4.47,0-1.6.01-3.21.02-4.81,0-1.6.01-3.21.02-4.81,0-.69-.08-1.44-.02-2.13.04-.42.17-.31.64-.31.38,0,.59-.11.65.22,0,.33,0,.67,0,1,.01,2.79.02,5.59.02,8.38,0,1.35,0,2.69,0,4.04,0,.65,0,1.3,0,1.95,0,.57.19,1.4,0,1.94h0Z"/>
            <path class="cls-2" d="M29.64,10.49c-.25.1-.77,0-1.04,0-.86,0-1.73,0-2.59,0v.03c-1.41,0-2.82.02-4.22-.03-.22,0-.44.06-.47-.12-.02-.11.35-.6.39-.73.16-.5,0-1.01-.37-1.39-.35-.35-.87-.62-1.39-.65-.34-.02-1.39.21-1.64-.03-.12-.12-.09-1.31,0-1.44.22-.3,1.36-.12,1.76-.12.35,0,.7,0,1.05,0,.27,0,.8-.1,1.05,0,.41.16.17,1.12.21,1.5.12.99,1.13,1.76,2.19,1.32.48-.2.78-.62.93-1.08.08-.25.07-.5.08-.76,0-.16-.08-.75.03-.88.19-.23.92.04,1.17.12.5.16.97.4,1.37.73.9.73,1.46,1.83,1.63,2.92.05.28.14.49-.14.61Z"/>
            <path class="cls-2" d="M13.77,7.55c-.14.17-.8.06-1.01.06-.33,0-.68-.02-1.01.06-.56.14-.95.52-1.21.99-.3.55-.1.95.05,1.5.06.23.16.21-.06.31-.2.1-.8,0-1.03,0v.04c-1.44,0-2.86.06-4.3.02-.67-.02-1.35.04-2.02.02-.16,0-.69.05-.81-.06-.13-.13.02-.62.05-.77.19-1.03.68-1.99,1.53-2.69.38-.32,2.27-1.41,2.6-.8.11.2,0,.64,0,.86,0,.27.01.55.1.81.17.5.61.94,1.16,1.08,1.13.28,1.77-.63,1.91-1.54.04-.27-.13-1.19.05-1.37.2-.19,1.41-.03,1.71-.03.34,0,.68,0,1.02,0,.26,0,.8-.1,1.02,0,.29.12.22.23.22.57,0,.18.12.81,0,.95h0Z"/>
            <path class="cls-2" d="M29.84,17.2h-.02c0,1.79,0,3.58,0,5.38,0,1.02-.39,1.91-1.2,2.62-.55.48-1.19.76-1.95.8-.37.02-.74.02-1.1.02-2.04,0-4.07-.01-6.11-.02-.08,0-.23.02-.24,0-.04-.09-.04-.19-.03-.29.02-.23.06-.46.06-.69,0-.16.05-.2.22-.2,1.32.02,2.65.03,3.97.04.84,0,1.68-.02,2.53,0,1.22.04,2.08-.6,2.47-1.56.1-.25.18-.52.18-.79.02-1.61.01-3.22.01-4.83,0-1.94,0-3.87,0-5.81,0-.49,0-.49.54-.49.15,0,.3.02.44,0,.2-.02.24.06.24.23,0,1.86,0,3.72,0,5.58h0Z"/>
            <path class="cls-2" d="M12.68,26.06c-.06,0-.11,0-.17,0-2.09,0-4.18,0-6.28-.02-.8,0-1.56-.16-2.23-.59-1.07-.69-1.61-1.68-1.64-2.85-.06-2.3-.04-4.6-.05-6.89,0-1.26,0-2.53.01-3.79,0-.57-.03-.46.52-.47.2,0,.48-.05.59.04.11.09.05.35.05.54,0,1.73,0,3.46,0,5.19h.03c0,1.81-.02,3.61,0,5.42.02.96.89,2.05,1.94,2.21.08.01.16.03.24.03,1.41,0,2.81,0,4.22,0,.89,0,1.78-.02,2.67-.05.18,0,.21.04.21.2,0,.29.01.57.04.86,0,.13-.03.18-.17.18h0Z"/>
            <path class="cls-2" d="M8.08,22.13c0,.35.15.97-.11,1.27-.28.32-.94.2-1.32.2-.46,0-1.27.15-1.66-.13-.42-.31-.26-1.01-.26-1.44h0c0-.43-.18-1.18.24-1.5.39-.29,1.2-.12,1.66-.12.46,0,1.09-.13,1.38.3.25.37.08,1.01.08,1.42h0Z"/>
            <path class="cls-2" d="M27.37,21.95c0,.43.16,1.11-.21,1.45-.36.33-1.09.19-1.55.19-.41,0-1.05.17-1.38-.14-.37-.35-.2-1.11-.21-1.55,0-.38-.15-.94.11-1.26.29-.36.82-.26,1.24-.26.46,0,1.24-.13,1.65.08.53.28.35,1.01.35,1.49h-.01Z"/>
            <path class="cls-2" d="M22.67,21.96c0,.41.17,1.12-.15,1.45-.27.28-.77.22-1.13.22-.45,0-1.28.13-1.69-.07-.49-.24-.35-.96-.36-1.37,0-.42-.15-1.12.08-1.48.3-.47,1.11-.31,1.6-.31,0,0,0,0,0-.01.46,0,1.22-.16,1.55.24.26.32.11.95.11,1.32h0Z"/>
            <path class="cls-2" d="M8.09,13.27c0,.41.17,1.14-.23,1.44-.37.28-1.2.14-1.64.15-.4.01-.97.13-1.29-.17-.36-.32-.21-1.01-.21-1.43,0-.4-.16-1.09.18-1.4.31-.28.9-.17,1.28-.17.46,0,1.31-.16,1.7.13.4.31.23,1.03.23,1.44h0Z"/>
            <path class="cls-2" d="M27.38,13.25c0,.44.16,1.1-.22,1.44-.36.32-1.03.19-1.49.19-.43,0-1.08.09-1.42-.21-.4-.36-.25-1.05-.25-1.5,0-.42-.14-1.04.26-1.34.37-.28,1.05-.15,1.5-.14.44,0,1.11-.12,1.44.2.33.32.18.95.18,1.35h0,0Z"/>
            <path class="cls-3" d="M27.17,19c-.34.3-.96.19-1.38.2-.45.01-1.12.18-1.51-.12-.43-.33-.28-1.11-.31-1.56,0,0,.01,0,.02,0,0-.45-.17-1.16.35-1.42.43-.22,1.16-.06,1.63-.06.41,0,1.02-.11,1.32.24.29.34.12,1.03.11,1.43,0,.39.11.98-.23,1.29h0Z"/>
            <path class="cls-3" d="M12.76,22c0,.4.16,1.12-.18,1.43-.34.31-1.13.17-1.57.18-.41,0-1.03.15-1.36-.14-.35-.3-.22-.86-.21-1.25.01-.41-.12-1.23.17-1.59.29-.35.88-.22,1.3-.22.44,0,1.25-.16,1.63.1.42.28.23,1.08.23,1.48h0Z"/>
            <path class="cls-3" d="M22.5,18.97c-.29.36-1,.22-1.41.22-.43,0-1.2.16-1.55-.12-.39-.31-.25-1.09-.27-1.51,0,0,.01,0,.02,0,0-.39-.13-1.01.19-1.32.3-.29.81-.18,1.19-.17.49,0,1.33-.17,1.75.12.42.28.28.85.26,1.26-.01.42.1,1.16-.19,1.52h0Z"/>
            <path class="cls-3" d="M22.71,13.32c0,.45.13,1.03-.28,1.36-.37.29-1.02.15-1.48.15-.39,0-1.04.13-1.38-.11-.36-.26-.24-.88-.24-1.24,0-.42-.16-1.21.13-1.55.32-.39,1.1-.22,1.55-.22h0c.45,0,1.15-.14,1.51.19.35.33.19,1.02.19,1.43Z"/>
            <path class="cls-3" d="M8.09,17.56c0,.44.12,1.08-.22,1.44-.31.34-1.03.19-1.47.19s-1.11.15-1.45-.16c-.34-.3-.2-.93-.2-1.32,0-.39-.16-1.09.12-1.43.29-.35.99-.22,1.39-.22.44,0,1.18-.13,1.55.13.43.29.27.95.27,1.38h0Z"/>
            <path class="cls-3" d="M12.76,17.84c0,.37.12.97-.25,1.24-.33.24-1.05.11-1.44.12-.4,0-1.1.15-1.43-.14-.35-.31-.18-1.05-.18-1.45h0c0-.41-.17-1.15.23-1.44.38-.27,1.22-.11,1.67-.11.44,0,1.02-.1,1.3.31.25.37.1,1.06.1,1.48Z"/>
            <path class="cls-3" d="M12.61,14.61c-.29.3-.9.18-1.28.19-.42,0-1.13.15-1.53-.03-.46-.21-.33-.74-.34-1.14,0-.43-.14-1.17.04-1.56.23-.48.89-.36,1.34-.36.48,0,1.25-.15,1.64.12.43.3.26.99.26,1.42h0c0,.38.16,1.04-.15,1.36h0Z"/>
            <g>
              <path class="cls-2" d="M19.28,10.43c-.28,0-.56-.03-.82-.05-.14-.01-.28-.03-.39-.03-.85-.04-1.7-.04-2.55-.04h-1.13c-.67,0-1.23,0-1.8.06h-.12c-.59,0-1.16-.36-1.31-.84-.14-.41.02-.83.42-1.12.3-.22.71-.33,1.31-.33.28,0,.58.02.85.05.19.02.37.03.51.03.93,0,2.78.02,2.78.02.4,0,.74-.01,1.08-.02.35-.01.7-.03,1.05-.03.13,0,.26,0,.39,0,.52.02,1.15.3,1.35.82.14.37.04.76-.29,1.07-.38.37-.94.41-1.32.41Z"/>
              <path class="cls-4" d="M12.87,8.58c.49,0,1.01.07,1.36.08.93,0,1.85.02,2.78.02.02,0,.05,0,.07,0,.69,0,1.39-.05,2.08-.05.13,0,.25,0,.38,0,.57.02,1.27.5.72,1.03-.22.21-.59.27-.98.27-.43,0-.88-.07-1.19-.08-.86-.04-1.73-.04-2.59-.04-.1,0-.19,0-.29,0h-.04c-.27,0-.53,0-.8,0-.61,0-1.23,0-1.84.06-.03,0-.05,0-.08,0-.61,0-1.23-.59-.6-1.06.24-.18.61-.23,1.01-.23M12.87,7.58c-.45,0-1.1.04-1.61.43-.57.43-.8,1.07-.59,1.68.23.69.98,1.18,1.79,1.18.05,0,.11,0,.16,0,.55-.05,1.1-.06,1.75-.06h.4s.4,0,.4,0h.32c.91,0,1.73,0,2.55.04.11,0,.23.02.37.03.26.03.56.05.87.05.74,0,1.28-.18,1.67-.55.47-.45.63-1.06.41-1.61-.29-.75-1.14-1.12-1.8-1.14-.14,0-.27,0-.41,0-.36,0-.72.01-1.07.03-.33.01-.67.02-1,.02h-.06c-.92,0-1.85-.01-2.77-.02-.14,0-.3-.02-.48-.03-.27-.02-.58-.05-.89-.05h0Z"/>
            </g>
            <path class="cls-2" d="M15.99.99c-.62.02-1.03.29-1.5.63-.28.2-.16.1-.26.36-.09.23-.17.48-.17.73,0,1.02.91,1.84,2,1.83,2.53-.02,2.43-3.54-.07-3.55h0ZM16,3.49c-.87-.05-.94-1.3-.11-1.42,1.17-.18,1.19,1.44.11,1.42Z"/>
            <path class="cls-2" d="M8.76,7.59c-.28.62-.99.4-1.12-.17-.08-.37-.02-.81-.03-1.19,0-.37-.11-.91.02-1.26.24-.63,1.21-.42,1.19.24-.02.45-.03.91-.05,1.36-.01.32.12.72-.01,1.01h0Z"/>
            <path class="cls-2" d="M24.55,6.62c.01.26.03.58-.03.85,0,.03-.01.05-.02.08,0,.03-.02.05-.02.07,0,0,0,0,0,0,0,.02-.01.03-.02.05-.09.19-.25.32-.52.29-.79-.08-.55-1.35-.56-1.81,0-.44-.22-1.42.48-1.58.33-.07.51.08.6.33,0,.01,0,.03.01.04.11.32.09.78.07,1.09,0,0,0,0,0,0,0,.12-.01.22-.01.28,0,.07,0,.17.01.29h0Z"/>
            <path class="cls-2" d="M17.18,6.1c-.15.29-.82.15-1.13.15h0c-.19,0-.77.1-.93,0-.16-.1-.11-.33-.1-.52.02-.36,0-.33.42-.33.39,0,.78,0,1.17,0,.23,0,.43-.09.55.09.04.06.04.56.02.61Z"/>
            <path class="cls-2" d="M17.13,7.62c-.04.19.05.18-.12.28-.09.05-.43,0-.54,0-.34,0-.92.1-1.23,0-.24-.08-.42-.38-.23-.66.17-.25.79-.14,1.05-.14h0c.58,0,1.2-.2,1.06.53h0Z"/>
          </g>
        </g>
      </g>
    </g>
  </g>
</svg>